<svg width="63" height="63" viewBox="0 0 63 63" fill="none" xmlns="http://www.w3.org/2000/svg">
<g filter="url(#filter0_d_631_501)">
<path d="M57.1871 37.4753L44.5297 48.8422C40.1043 52.8114 34.3956 55 28.453 55H5.14588C4.51335 55 4 54.4867 4 53.8541C4 53.2216 4.51335 52.7083 5.14588 52.7083H28.453C33.8295 52.7083 38.9951 50.7306 42.9988 47.1372L55.6126 35.8139C56.8479 34.5786 57.0862 32.6078 56.1237 31.2694C55.5118 30.4215 54.6157 29.9081 53.5936 29.8256C52.5944 29.7569 51.5998 30.1075 50.8825 30.8225L41.3052 39.5493C40.267 40.5989 38.8255 41.2521 37.2328 41.2521H25.774C25.1414 41.2521 24.6281 40.7387 24.6281 40.1062C24.6281 39.4737 25.1414 38.9604 25.774 38.9604H37.2328C38.1495 38.9604 38.9837 38.5983 39.6001 38.0116C39.6299 37.9772 39.662 37.9428 39.6964 37.9108L39.7376 37.8741C40.3152 37.2599 40.6704 36.4326 40.6704 35.5228C40.6704 33.6276 39.128 32.0853 37.2328 32.0853H23.6839C17.8697 32.0853 12.4016 34.3495 8.28788 38.4608L5.97779 40.8946C5.54464 41.3598 4.81587 41.3735 4.35981 40.9381C3.89916 40.505 3.88083 39.7785 4.31626 39.3202L6.64698 36.8657C11.2144 32.2984 17.2578 29.7958 23.6839 29.7958H37.2328C40.2029 29.7958 42.6528 32.0669 42.9346 34.9636L49.3011 29.1656C50.4516 28.0129 52.0879 27.4033 53.7792 27.5454C55.4568 27.6806 56.9877 28.5492 57.9846 29.9333C59.598 32.1723 59.2565 35.4174 57.1894 37.4799L57.1871 37.4753ZM15.4679 3.72542C15.3969 2.72395 15.7682 1.73851 16.4832 1.02121C17.1982 0.303906 18.1699 -0.0513076 19.1898 0.00598497C26.4477 0.517035 30.7563 3.25104 32.6469 8.83592C34.5399 3.25104 38.8461 0.517035 46.1064 0.00598497C47.1056 -0.0421408 48.0934 0.303906 48.8107 1.02121C49.5257 1.73622 49.8993 2.72395 49.826 3.72771C49.1293 13.6095 44.3143 18.0234 33.7928 18.3144V21.768C33.7928 22.4005 33.2795 22.9139 32.6469 22.9139C32.0144 22.9139 31.5011 22.4005 31.5011 21.768V18.3144C20.9796 18.0234 16.1646 13.6095 15.4679 3.72542ZM33.8089 16.0227C43.0538 15.7546 46.9338 12.1887 47.5388 3.56271C47.564 3.22354 47.4357 2.88666 47.1904 2.64144C46.9636 2.41457 46.6633 2.28852 46.3516 2.28852C46.3241 2.28852 46.2989 2.28852 46.2714 2.29311C37.643 2.90041 34.0793 6.77797 33.8089 16.0227ZM17.7551 3.56271C18.3624 12.191 22.2401 15.7546 31.485 16.025C31.2169 6.78026 27.6509 2.90041 19.0248 2.2954C18.9973 2.2954 18.9697 2.29081 18.9422 2.29081C18.6306 2.29081 18.3281 2.41915 18.1035 2.64374C17.8582 2.88895 17.7299 3.22583 17.7551 3.56271Z" fill="#A2E821"/>
</g>
<defs>
<filter id="filter0_d_631_501" x="0" y="0" width="63" height="63" filterUnits="userSpaceOnUse" color-interpolation-filters="sRGB">
<feFlood flood-opacity="0" result="BackgroundImageFix"/>
<feColorMatrix in="SourceAlpha" type="matrix" values="0 0 0 0 0 0 0 0 0 0 0 0 0 0 0 0 0 0 127 0" result="hardAlpha"/>
<feOffset dy="4"/>
<feGaussianBlur stdDeviation="2"/>
<feComposite in2="hardAlpha" operator="out"/>
<feColorMatrix type="matrix" values="0 0 0 0 0 0 0 0 0 0 0 0 0 0 0 0 0 0 0.25 0"/>
<feBlend mode="normal" in2="BackgroundImageFix" result="effect1_dropShadow_631_501"/>
<feBlend mode="normal" in="SourceGraphic" in2="effect1_dropShadow_631_501" result="shape"/>
</filter>
</defs>
</svg>
