<svg width="63" height="63" viewBox="0 0 63 63" fill="none" xmlns="http://www.w3.org/2000/svg">
<g filter="url(#filter0_d_601_512)">
<path d="M26.291 44.3175C26.8067 44.635 27.3681 44.7925 27.9227 44.7925C28.4933 44.7925 29.0548 44.6275 29.5498 44.3025L40.2175 38.07C41.2167 37.4175 41.8125 36.2675 41.8125 34.9975C41.8125 33.7275 41.2167 32.58 40.1694 31.895L29.6002 25.725C28.569 25.0525 27.3315 25.035 26.291 25.68C25.2483 26.325 24.625 27.49 24.625 28.7975V41.2C24.625 42.5075 25.246 43.6725 26.291 44.3175ZM26.9167 28.7975C26.9167 28.2275 27.2673 27.95 27.4185 27.8575C27.5079 27.805 27.6775 27.7175 27.8998 27.7175C28.0625 27.7175 28.2573 27.765 28.4681 27.9L39.0373 34.07C39.4727 34.355 39.5185 34.8125 39.5185 34.9975C39.5185 35.1825 39.4704 35.64 39.0854 35.895L28.4177 42.1275C27.9708 42.4225 27.5698 42.235 27.4163 42.14C27.265 42.0475 26.9144 41.7675 26.9144 41.2V28.7975H26.9167ZM48.6875 0H14.3125C8.62688 0 4 5.0475 4 11.25V43.75C4 49.9525 8.62688 55 14.3125 55H48.6875C54.3731 55 59 49.9525 59 43.75V11.25C59 5.0475 54.3731 0 48.6875 0ZM48.6875 2.5C49.336 2.5 49.964 2.585 50.569 2.7425L39.3329 15H28.2504L39.7088 2.5H48.6875ZM36.4683 2.5L25.01 15H13.6823L25.3835 2.5H36.466H36.4683ZM6.29167 11.25C6.29167 6.425 9.88958 2.5 14.3125 2.5H22.1088L10.4075 15H6.29167V11.25ZM56.7083 43.75C56.7083 48.575 53.1104 52.5 48.6875 52.5H14.3125C9.88958 52.5 6.29167 48.575 6.29167 43.75V17.5H56.7083V43.75ZM56.7083 15H42.5733L52.8583 3.78C55.166 5.3175 56.7083 8.09 56.7083 11.25V15Z" fill="#486D03"/>
</g>
<defs>
<filter id="filter0_d_601_512" x="0" y="0" width="63" height="63" filterUnits="userSpaceOnUse" color-interpolation-filters="sRGB">
<feFlood flood-opacity="0" result="BackgroundImageFix"/>
<feColorMatrix in="SourceAlpha" type="matrix" values="0 0 0 0 0 0 0 0 0 0 0 0 0 0 0 0 0 0 127 0" result="hardAlpha"/>
<feOffset dy="4"/>
<feGaussianBlur stdDeviation="2"/>
<feComposite in2="hardAlpha" operator="out"/>
<feColorMatrix type="matrix" values="0 0 0 0 0 0 0 0 0 0 0 0 0 0 0 0 0 0 0.25 0"/>
<feBlend mode="normal" in2="BackgroundImageFix" result="effect1_dropShadow_601_512"/>
<feBlend mode="normal" in="SourceGraphic" in2="effect1_dropShadow_601_512" result="shape"/>
</filter>
</defs>
</svg>
